<svg width="128" height="128" viewBox="0 0 128 128" fill="none" xmlns="http://www.w3.org/2000/svg">
<path fill-rule="evenodd" clip-rule="evenodd" d="M55.6968 10.2917C51.0536 11.3235 45.8243 13.5397 42.2695 18.1401C41.3819 19.2887 39.9212 19.7337 38.6009 19.3835C37.3711 20.9646 36.332 22.6761 35.5205 24.5H37L38.1933 25.6933C43.4227 16.8957 53.0228 11 64 11C74.9772 11 84.5773 16.8957 89.8067 25.6933L91 24.5H92.7301C91.6177 22.6003 90.404 20.8767 89.1065 19.3214C87.675 19.799 86.0423 19.3066 85.1327 18.0071C82.3685 14.0583 77.3944 11.833 72.5457 10.6503C70.1914 10.0761 68.0247 9.78646 66.4459 9.64162C65.6597 9.56949 65.0277 9.53402 64.6014 9.51662C64.3885 9.50793 64.2275 9.50377 64.1249 9.50179C64.0737 9.5008 64.0371 9.50035 64.016 9.50015L63.9961 9.5L63.995 9.5L63.9967 9.5L63.9982 9.5L63.9982 9.49995L63.7839 9.49325L63.7839 9.49333L63.7757 9.49293C63.7588 9.49207 63.7274 9.49057 63.6822 9.48881C63.5917 9.48529 63.446 9.48075 63.2507 9.47823C62.8598 9.47318 62.2728 9.4763 61.5345 9.51163C60.052 9.58256 57.9907 9.78188 55.6968 10.2917ZM38.5 49.8965V32.1035C42.1771 21.5627 52.2054 14 64 14C75.7946 14 85.8229 21.5627 89.5 32.1035V49.8965C86.9132 57.3118 81.1833 63.2532 73.9064 66.1248L75.0071 68.9164C81.3408 66.4171 86.6198 61.8246 89.9915 55.9915L91 57H104.5L106 55.5V26L104.5 24.5H96.1676C94.7118 21.7784 93.0676 19.3626 91.2746 17.2366C91.6682 16.1916 91.556 14.9767 90.8673 13.9929C86.6315 7.94174 79.6056 5.16705 74.2043 3.84968C71.4336 3.1739 68.9128 2.83854 67.0854 2.67089C66.1684 2.58677 65.4176 2.54411 64.8869 2.52245C64.6213 2.51161 64.4102 2.506 64.2603 2.5031C64.1983 2.5019 64.1467 2.50116 64.106 2.50071C64.0653 2.49873 64.0146 2.49645 63.9543 2.4941C63.8063 2.48835 63.5999 2.48215 63.3411 2.47881C62.8238 2.47213 62.0943 2.47683 61.1999 2.51963C59.4168 2.60494 56.9468 2.84312 54.1782 3.45835C48.6964 4.67654 41.6757 7.46026 36.7305 13.8599C35.9123 14.9188 35.7956 16.298 36.3086 17.4387C34.6333 19.5738 33.2624 21.9373 32.273 24.5H23.5L22 26V55.5L23.5 57H37L38.0085 55.9915C41.3803 61.8246 46.6592 66.4171 52.9929 68.9164L54.0936 66.1248C46.8167 63.2532 41.0868 57.3118 38.5 49.8965ZM94.3564 27.5H92.5V54H103V27.5H94.4185L94.3698 27.5256L94.3564 27.5ZM25 27.5V54H35.5V27.5H25ZM88 41C88 51.1461 81.704 59.8218 72.8057 63.3331L71.705 60.5415C79.491 57.4691 85 49.8779 85 41C85 29.402 75.598 20 64 20C52.402 20 43 29.402 43 41C43 49.8779 48.509 57.4691 56.295 60.5415L55.1943 63.3331C46.296 59.8218 40 51.1461 40 41C40 27.7452 50.7452 17 64 17C77.2548 17 88 27.7452 88 41ZM82 41C82 48.6096 77.278 55.1163 70.6043 57.7498L69.5036 54.9582C75.065 52.7636 79 47.3413 79 41C79 32.7157 72.2843 26 64 26C55.7157 26 49 32.7157 49 41C49 47.3413 52.935 52.7636 58.4965 54.9582L57.3957 57.7498C50.722 55.1163 46 48.6096 46 41C46 31.0589 54.0589 23 64 23C73.9411 23 82 31.0589 82 41ZM76 41C76 46.0731 72.852 50.4109 68.4028 52.1666L67.3021 49.3749C70.639 48.0582 73 44.8048 73 41C73 36.0294 68.9706 32 64 32C59.0294 32 55 36.0294 55 41C55 44.8048 57.361 48.0582 60.6979 49.3749L59.5972 52.1666C55.148 50.4109 52 46.0731 52 41C52 34.3726 57.3726 29 64 29C70.6274 29 76 34.3726 76 41ZM64 44C65.6569 44 67 42.6569 67 41C67 39.3431 65.6569 38 64 38C62.3431 38 61 39.3431 61 41C61 42.6569 62.3431 44 64 44ZM70 41C70 43.9742 67.836 46.4429 64.9967 46.9176C64.9989 46.9448 65 46.9723 65 47V69C65 69.5523 64.5523 70 64 70C63.4477 70 63 69.5523 63 69V47C63 46.9723 63.0011 46.9448 63.0033 46.9176C60.164 46.4429 58 43.9742 58 41C58 37.6863 60.6863 35 64 35C67.3137 35 70 37.6863 70 41ZM45 70.5C44.1679 69.2519 44.1677 69.2521 44.1675 69.2522L44.1667 69.2528L44.164 69.2545L44.1547 69.2608L44.12 69.284C44.0899 69.3043 44.0459 69.3339 43.9889 69.3726C43.8747 69.45 43.7083 69.5636 43.496 69.7102C43.0715 70.0035 42.4634 70.4294 41.7236 70.9635C40.2451 72.0308 38.2348 73.5345 36.1108 75.2781C33.9898 77.0192 31.7366 79.0149 29.7813 81.0668C27.8433 83.1005 26.1182 85.2711 25.1407 87.3657C22.0555 93.9768 22.2867 100.652 22.4426 105.151C22.4727 106.021 22.5 106.809 22.5 107.5C22.5 109.235 23.5587 110.951 25.2023 112.457C26.8835 113.998 29.3671 115.505 32.6856 116.83C39.3296 119.485 49.5323 121.5 64 121.5C78.4677 121.5 88.6704 119.485 95.3144 116.83C98.6329 115.505 101.116 113.998 102.798 112.457C104.441 110.951 105.5 109.235 105.5 107.5C105.5 102.838 104.474 95.2048 102.449 87.6135C101.857 85.3919 100.29 83.146 98.462 81.1018C96.6066 79.0267 94.3516 77.0169 92.1933 75.2712C90.0299 73.5214 87.9346 72.0137 86.3821 70.9444C85.605 70.4091 84.9617 69.9822 84.5112 69.6882C84.2859 69.5412 84.1087 69.4273 83.9869 69.3496C83.926 69.3107 83.879 69.2809 83.8467 69.2605L83.8094 69.237L83.7993 69.2307L83.7964 69.2289L83.7955 69.2283C83.7952 69.2281 83.795 69.228 83 70.5L83.795 69.228L82.6093 68.4869L81.7969 69.604L81.7905 69.6119C81.7759 69.6297 81.745 69.6664 81.6961 69.7195C81.5983 69.8256 81.428 69.9974 81.1717 70.2143C80.66 70.6472 79.7994 71.2647 78.4778 71.8968C75.8376 73.1595 71.3153 74.5 64 74.5C56.6847 74.5 52.1624 73.1595 49.5222 71.8968C48.2006 71.2647 47.3399 70.6472 46.8283 70.2143C46.572 69.9974 46.4017 69.8256 46.3039 69.7195C46.255 69.6664 46.2241 69.6297 46.2095 69.6119L46.2031 69.604L45.3661 68.4531L44.1679 69.2519L45 70.5ZM83.1095 72.5045C82.4024 73.1028 81.3256 73.8603 79.7722 74.6032C76.6624 76.0905 71.6847 77.5 64 77.5C56.3153 77.5 51.3376 76.0905 48.2278 74.6032C46.6744 73.8603 45.5975 73.1028 44.8905 72.5045C44.8663 72.484 44.8426 72.4638 44.8194 72.4438C44.4536 72.6994 44.0005 73.0198 43.4796 73.3959C42.0361 74.4379 40.0777 75.903 38.0142 77.5969C35.9477 79.2933 33.7947 81.2038 31.9531 83.1364C30.0942 85.087 28.6318 86.9789 27.8593 88.6343C25.1098 94.5261 25.2968 100.355 25.4418 104.874C25.4718 105.809 25.5 106.688 25.5 107.5C25.5 108.015 25.8554 108.987 27.2293 110.246C28.5656 111.47 30.7031 112.808 33.7986 114.045C39.9826 116.515 49.7799 118.5 64 118.5C78.2201 118.5 88.0174 116.515 94.2014 114.045C97.2969 112.808 99.4344 111.47 100.771 110.246C102.145 108.987 102.5 108.015 102.5 107.5C102.5 103.162 101.526 95.7952 99.5506 88.3865C99.1431 86.8581 97.9603 85.0415 96.2255 83.1014C94.5184 81.192 92.3984 79.2955 90.3067 77.6038C88.2201 75.916 86.1904 74.4551 84.6804 73.415C84.1035 73.0177 83.6038 72.6827 83.2072 72.4208C83.1755 72.4483 83.1429 72.4762 83.1095 72.5045ZM61.5 100.946V91.5162L74.5 87.0475V96.4457H68L66.5 97.9457V105.946L68 107.446H76L77.5 105.946V98.4457V97.9457V84.9457L75.5124 83.5272L59.5124 89.0272L58.5 90.4457V99.4457H52L50.5 100.946V108.946L52 110.446H60L61.5 108.946V101.446V100.946ZM69.5 99.4457V104.446H74.5V99.4457H69.5ZM53.5 102.446V107.446H58.5V102.446H53.5Z" fill="#010101"/>
</svg>
